<svg xmlns="http://www.w3.org/2000/svg" version="1.1" xmlns:xlink="http://www.w3.org/1999/xlink" xmlns:svgjs="http://svgjs.dev/svgjs" width="2000" height="742" viewBox="0 0 2000 742"><g transform="matrix(1,0,0,1,-1.2121212121212466,0.7996836020527098)"><svg viewBox="0 0 396 147" data-background-color="#ffffff" preserveAspectRatio="xMidYMid meet" height="742" width="2000" xmlns="http://www.w3.org/2000/svg" xmlns:xlink="http://www.w3.org/1999/xlink"><g id="tight-bounds" transform="matrix(1,0,0,1,0.2400000000000091,-0.1584278834255315)"><svg viewBox="0 0 395.52 147.31685576685106" height="147.31685576685106" width="395.52"><g><svg viewBox="0 0 683.8391105918256 254.70526805923265" height="147.31685576685106" width="395.52"><g transform="matrix(1,0,0,1,288.3191105918256,0)"><svg viewBox="0 0 395.52 254.70526805923265" height="254.70526805923265" width="395.52"><g id="textblocktransform"><svg viewBox="0 0 395.52 254.70526805923265" height="254.70526805923265" width="395.52" id="textblock"><g><svg viewBox="0 0 395.52 185.9051771117166" height="185.9051771117166" width="395.52"><g transform="matrix(1,0,0,1,0,0)"><svg width="395.52" viewBox="1.5 -34.5 73.4 34.5" height="185.9051771117166" data-palette-color="#f5cf02"><path d="M34.05-5.85L34.05-18.85Q34.05-20.85 34.4-25.05L34.4-25.05 34.5-26.25 34-26.3Q32.85-22.05 32-19.55L32-19.55 25.35 0 18.7 0 11.7-19.55Q10.75-21.8 10-25.15L10-25.15 9.7-26.3 9.2-26.25Q9.65-21.8 9.65-18.85L9.65-18.85 9.65-5.7Q11.5-5 12.4-3.85L12.4-3.85 11.9 0 2.1 0 1.6-3.85Q2.5-5 4.35-5.7L4.35-5.7 4.35-28.8Q2.3-29.55 1.5-30.65L1.5-30.65 2-34.5 13.4-34.5 20.7-14.35Q22.1-11.05 22.5-8.3L22.5-8.3 22.65-7.45 23.35-7.45Q23.55-10.5 25.15-14.35L25.15-14.35 32.1-34.5 43.3-34.5 43.8-30.65Q43-29.55 40.95-28.8L40.95-28.8 40.95-5.9Q42.9-5.15 43.7-4.15L43.7-4.15 43.2 0 31.8 0 31.3-4.1Q32.1-5.1 34.05-5.85L34.05-5.85ZM66.45-4.15L65.95 0 54.25 0 53.75-4.15Q54.4-5 56.5-5.8L56.5-5.8 56.5-11.55 48.35-28.5Q46-29.3 45.15-30.35L45.15-30.35 45.6-34.25 45.6-34.3 45.65-34.5 57.35-34.5 57.85-30.35Q57.25-29.5 55.55-28.85L55.55-28.85 57.25-25Q58.7-21.7 59.75-18.45L59.75-18.45 60.1-17.45 60.85-17.45Q61.9-21.1 63.6-25L63.6-25 65.2-28.65Q63.2-29.45 62.5-30.35L62.5-30.35 63-34.5 74.4-34.5 74.9-30.35Q73.9-29.2 71.6-28.45L71.6-28.45 63.7-11.55 63.7-5.8Q65.7-5 66.45-4.15L66.45-4.15Z" opacity="1" transform="matrix(1,0,0,1,0,0)" fill="#f5cf02" class="wordmark-text-0" data-fill-palette-color="primary" id="text-0"></path></svg></g></svg></g><g transform="matrix(1,0,0,1,0,229.7929277035422)"><svg viewBox="0 0 232.20979200000002 24.912340355690443" height="24.912340355690443" width="232.20979200000002"><g transform="matrix(1,0,0,1,0,0)"><svg width="232.20979200000002" viewBox="1.45 -34.8 329.47 35.349999999999994" height="24.912340355690443" data-palette-color="#f5cf02"><path d="M32.55-34.25L35.3-34.25 28.6 0 24.9 0 18.35-31 11.75 0 8.15 0 1.45-34.25 4.3-34.25 10.1-2.7 16.7-34.25 20-34.25 26.75-2.7 32.55-34.25ZM41.65-34.25L57.45-34.25 57.1-31.8 44.55-31.8 44.55-18.95 55.45-18.95 55.45-16.55 44.55-16.55 44.55-2.45 57.75-2.45 57.75 0 41.65 0 41.65-34.25ZM76.84-18.15Q80.3-17.7 82.34-15.65 84.4-13.6 84.4-9.5L84.4-9.5Q84.4-4.8 81.4-2.4 78.4 0 73 0L73 0 64.7 0 64.7-34.25 71.5-34.25Q77-34.25 79.97-32.05 82.95-29.85 82.95-25.7L82.95-25.7Q82.95-22.6 81.32-20.68 79.7-18.75 76.84-18.15L76.84-18.15ZM71.8-31.85L67.59-31.85 67.59-19.2 73.15-19.2Q76.34-19.2 78.17-20.88 80-22.55 80-25.5L80-25.5Q80-28.8 77.92-30.33 75.84-31.85 71.8-31.85L71.8-31.85ZM73.05-2.45Q81.4-2.45 81.4-9.5L81.4-9.5Q81.4-13.25 79.32-15.05 77.25-16.85 73.45-16.85L73.45-16.85 67.59-16.85 67.59-2.45 73.05-2.45ZM101.79-14.45L89.79-14.45 89.79-16.85 101.79-16.85 101.79-14.45ZM116.04-34.25Q122.54-34.25 126.52-30.65 130.49-27.05 130.49-17.4L130.49-17.4Q130.49-7.7 126.47-3.85 122.44 0 116.54 0L116.54 0 109.79 0 109.79-34.25 116.04-34.25ZM116.44-31.8L112.69-31.8 112.69-2.4 116.69-2.4Q121.44-2.4 124.44-5.65 127.44-8.9 127.44-17.4L127.44-17.4Q127.44-23.35 125.89-26.53 124.34-29.7 121.97-30.75 119.59-31.8 116.44-31.8L116.44-31.8ZM138.34-34.25L154.14-34.25 153.79-31.8 141.24-31.8 141.24-18.95 152.14-18.95 152.14-16.55 141.24-16.55 141.24-2.45 154.44-2.45 154.44 0 138.34 0 138.34-34.25ZM177.69-34.25L180.59-34.25 170.64 0 167.34 0 157.34-34.25 160.34-34.25 169.04-3 177.69-34.25ZM186.33-34.25L202.13-34.25 201.78-31.8 189.23-31.8 189.23-18.95 200.13-18.95 200.13-16.55 189.23-16.55 189.23-2.45 202.43-2.45 202.43 0 186.33 0 186.33-34.25ZM209.38-34.25L212.28-34.25 212.28-2.6 225.13-2.6 224.73 0 209.38 0 209.38-34.25ZM241.53-34.8Q247.38-34.8 250.75-30.3 254.13-25.8 254.13-17.1L254.13-17.1Q254.13-8.55 250.75-4 247.38 0.55 241.53 0.55L241.53 0.55Q237.73 0.55 234.88-1.43 232.03-3.4 230.45-7.38 228.88-11.35 228.88-17.05L228.88-17.05Q228.88-22.75 230.45-26.75 232.03-30.75 234.88-32.77 237.73-34.8 241.53-34.8L241.53-34.8ZM241.53-32.3Q237.03-32.3 234.48-28.55 231.93-24.8 231.93-17.05L231.93-17.05Q231.93-9.4 234.5-5.68 237.08-1.95 241.53-1.95L241.53-1.95Q246.13-1.95 248.63-5.65 251.13-9.35 251.13-17.1L251.13-17.1Q251.13-24.85 248.6-28.58 246.08-32.3 241.53-32.3L241.53-32.3ZM268.63-34.25Q280.88-34.25 280.88-24L280.88-24Q280.88-18.55 277.65-15.98 274.43-13.4 268.58-13.4L268.58-13.4 264.93-13.4 264.93 0 262.03 0 262.03-34.25 268.63-34.25ZM268.58-15.8Q273.18-15.8 275.5-17.65 277.83-19.5 277.83-23.95L277.83-23.95Q277.83-28.15 275.58-30 273.33-31.85 268.68-31.85L268.68-31.85 264.93-31.85 264.93-15.8 268.58-15.8ZM287.62-34.25L303.42-34.25 303.07-31.8 290.52-31.8 290.52-18.95 301.42-18.95 301.42-16.55 290.52-16.55 290.52-2.45 303.72-2.45 303.72 0 287.62 0 287.62-34.25ZM330.92 0L327.62 0 319.67-15.45 318.87-15.4 313.57-15.4 313.57 0 310.67 0 310.67-34.25 317.72-34.25Q329.32-34.25 329.32-24.95L329.32-24.95Q329.32-21.45 327.55-19.18 325.77-16.9 322.47-16L322.47-16 330.92 0ZM318.07-17.8Q322.17-17.8 324.22-19.55 326.27-21.3 326.27-24.95L326.27-24.95Q326.27-28.45 324.27-30.15 322.27-31.85 317.62-31.85L317.62-31.85 313.57-31.85 313.57-17.8 318.07-17.8Z" opacity="1" transform="matrix(1,0,0,1,0,0)" fill="#f5cf02" class="slogan-text-1" data-fill-palette-color="secondary" id="text-1"></path></svg></g></svg></g></svg></g></svg></g><g transform="matrix(1,0,0,1,0,19.679780940371487)"><svg viewBox="0 0 244.43135999999998 215.34570617848968" height="215.34570617848968" width="244.43135999999998"><g><svg xmlns="http://www.w3.org/2000/svg" xmlns:xlink="http://www.w3.org/1999/xlink" version="1.1" x="0" y="0" viewBox="6.3 11.5 87.4 77" style="enable-background:new 0 0 100 100;" xml:space="preserve" height="215.34570617848968" width="244.43135999999998" class="icon-icon-0" data-fill-palette-color="accent" id="icon-0"><path d="M72.3 12.3L72.3 12.3 72.3 12.3l-0.4-0.8H28.2L6.3 50l21.8 38.5h43.7L93.7 50 72.3 12.3zM33.3 25.3L9.9 47.7l18.6-32.8L33.3 25.3zM70.7 14.8l6.4 35.7L36.9 25.8 70.7 14.8zM35.5 27.3l41 25.2-41 23.3V27.3zM77 54.5l-7.2 30.8-32.6-8.1L77 54.5zM33.5 75L9.9 50.5l23.6-22.7V75zM33.2 77.6l-4.6 7.7L11.5 55.1 33.2 77.6zM35 78.6l31.4 7.9H30.2L35 78.6zM79.3 53.3l11.6-2.5L72.1 84 79.3 53.3zM90.7 48.9l-11.4 2.5-5.9-33.1L90.7 48.9zM35 24.3l-5-10.8h38.2L35 24.3z" fill="#8c1aff" data-fill-palette-color="accent"></path></svg></g></svg></g></svg></g><defs></defs></svg><rect width="395.52" height="147.31685576685106" fill="none" stroke="none" visibility="hidden"></rect></g></svg></g></svg>